<?xml version="1.0" standalone="no"?>
<!DOCTYPE svg PUBLIC "-//W3C//DTD SVG 20010904//EN"
 "http://www.w3.org/TR/2001/REC-SVG-20010904/DTD/svg10.dtd">
<svg version="1.0" xmlns="http://www.w3.org/2000/svg"
 width="500.000000pt" height="500.000000pt" viewBox="0 0 500.000000 500.000000"
 preserveAspectRatio="xMidYMid meet">

<g transform="translate(0.000000,500.000000) scale(0.100000,-0.100000)"
fill="#000000" stroke="none">
<path d="M2055 4766 c-90 -42 -133 -119 -122 -222 l5 -50 -121 -110 c-67 -60
-162 -147 -212 -194 -50 -47 -250 -231 -445 -410 -195 -179 -417 -383 -492
-453 l-137 -128 -45 12 c-128 32 -266 -79 -266 -213 0 -90 69 -186 149 -208
47 -12 57 -24 69 -75 5 -22 21 -83 35 -135 14 -52 42 -158 62 -235 40 -152 83
-318 121 -460 118 -444 147 -553 151 -573 4 -14 -4 -42 -20 -71 -63 -115 -35
-233 73 -305 37 -25 54 -30 109 -30 54 -1 75 4 115 26 27 16 55 28 62 28 8 0
326 -103 706 -230 381 -126 751 -249 822 -272 128 -43 129 -43 147 -84 10 -22
28 -53 40 -69 28 -35 113 -75 161 -75 52 0 139 35 170 68 49 52 61 89 55 168
l-5 73 86 84 c48 46 128 122 178 168 172 159 509 473 594 555 201 193 334 309
349 306 130 -22 196 -7 254 57 44 49 60 99 55 170 -7 95 -66 166 -160 191 -41
11 -36 -2 -93 280 -13 69 -38 190 -55 270 -17 80 -56 267 -86 415 -30 149 -61
299 -69 335 -7 36 -27 135 -45 221 l-31 155 34 52 c58 86 60 173 7 254 -43 65
-99 93 -185 93 -51 0 -79 -5 -101 -19 l-32 -19 -133 42 c-74 23 -145 46 -159
51 -14 5 -209 66 -435 135 -458 142 -704 218 -783 244 -51 16 -54 19 -71 69
-20 59 -57 103 -106 127 -50 23 -140 19 -200 -9z m165 -125 c38 -37 45 -70 26
-115 -17 -42 -72 -72 -114 -61 -41 10 -82 59 -82 97 1 95 106 144 170 79z
m405 -246 c721 -224 662 -206 975 -302 l255 -79 3 -30 c2 -17 -3 -36 -10 -41
-11 -10 -117 -39 -533 -149 -55 -15 -154 -41 -220 -59 -98 -27 -424 -114 -587
-157 -35 -10 -38 -8 -68 25 -17 19 -51 44 -76 54 -28 11 -46 25 -49 38 -4 20
-39 432 -51 590 l-6 80 53 56 54 55 60 -18 c33 -11 123 -39 200 -63z m-580
-19 c11 -7 35 -17 52 -20 18 -4 35 -11 38 -16 3 -4 14 -115 25 -247 11 -131
24 -278 29 -328 8 -85 7 -91 -12 -105 -59 -43 -97 -93 -113 -146 -9 -30 -21
-57 -27 -59 -7 -2 -131 -32 -277 -68 -146 -36 -453 -113 -682 -171 -230 -58
-424 -106 -433 -106 -35 0 -7 33 148 172 89 81 176 160 192 175 17 16 170 156
340 312 171 157 339 312 375 345 36 34 90 84 121 111 30 28 82 76 116 108 65
60 77 65 108 43z m2086 -356 c23 -13 49 -61 49 -92 0 -41 -36 -86 -79 -99 -34
-10 -44 -9 -73 8 -22 12 -38 32 -47 59 -12 35 -12 44 3 76 9 19 27 40 39 46
29 14 83 15 108 2z m-213 -241 c20 -23 38 -45 40 -49 2 -4 -52 -158 -118 -341
-67 -184 -167 -458 -221 -609 -55 -151 -107 -294 -115 -316 -16 -41 -16 -41
-77 -47 l-61 -5 -180 186 c-534 551 -673 696 -693 721 -20 24 -21 31 -11 62
23 73 27 77 60 84 18 4 71 17 118 30 47 12 191 51 320 85 255 68 456 122 535
144 28 7 97 26 155 41 58 15 125 33 150 40 25 8 48 14 53 14 4 1 24 -18 45
-40z m195 -111 c3 -13 21 -102 41 -198 19 -96 47 -229 60 -295 14 -66 54 -262
90 -435 35 -173 76 -371 91 -440 51 -242 50 -239 25 -257 -13 -9 -32 -27 -43
-40 -11 -12 -29 -23 -40 -23 -11 0 -130 30 -266 66 -135 36 -277 74 -316 85
-38 10 -73 19 -77 19 -5 0 -8 17 -8 38 0 53 -18 112 -46 149 -13 17 -24 35
-24 39 0 12 456 1233 481 1287 15 33 25 34 32 5z m-1767 -142 c26 -26 34 -42
34 -71 0 -51 -53 -105 -102 -105 -90 0 -141 118 -75 177 49 45 98 44 143 -1z
m-240 -211 c18 -27 25 -11 -214 -515 -30 -63 -92 -196 -138 -295 -114 -244
-104 -229 -161 -235 -26 -3 -63 -14 -81 -23 -27 -15 -35 -16 -50 -5 -10 7
-199 154 -420 326 -313 244 -402 318 -397 330 4 10 9 32 12 50 3 18 11 36 17
40 15 9 1365 350 1393 351 14 1 29 -9 39 -24z m344 -122 c24 -26 109 -116 189
-198 80 -83 200 -207 265 -275 66 -69 175 -182 243 -251 l124 -127 -22 -45
c-26 -53 -12 -49 -244 -67 -77 -6 -187 -15 -245 -20 -136 -13 -401 -36 -565
-50 -71 -6 -168 -15 -215 -21 -147 -16 -153 -15 -184 33 l-27 42 77 166 c43
91 110 234 151 319 40 84 73 155 73 157 0 1 33 72 73 156 40 84 79 168 86 186
12 28 18 32 50 32 20 1 50 7 66 14 37 16 50 10 105 -51z m-1942 -118 c56 -47
46 -137 -18 -170 -66 -34 -137 7 -147 84 -5 36 -2 44 30 76 44 44 91 47 135
10z m598 -705 c159 -123 292 -228 295 -233 4 -5 2 -25 -3 -45 -12 -42 -4 -89
24 -147 l21 -43 -115 -163 c-63 -90 -148 -213 -189 -274 -41 -60 -77 -114 -81
-119 -6 -8 -128 -10 -136 -1 -2 1 -34 124 -73 271 -38 148 -96 373 -128 499
-62 238 -105 403 -147 562 -13 51 -24 100 -24 108 0 17 48 -19 556 -415z
m2395 -80 c22 -13 49 -61 49 -90 0 -34 -27 -76 -59 -92 -69 -33 -144 16 -144
93 0 35 6 48 32 71 33 30 85 37 122 18z m-1809 -170 c58 -71 15 -170 -72 -170
-52 0 -76 13 -95 50 -27 52 -12 109 36 137 35 20 109 10 131 -17z m1558 -20
c15 -36 71 -87 117 -106 18 -8 33 -18 33 -23 0 -5 -29 -107 -64 -227 -35 -121
-114 -397 -175 -614 -62 -217 -117 -410 -122 -427 -9 -28 -15 -33 -40 -33 -17
0 -38 -4 -48 -10 -16 -8 -34 8 -117 102 -55 61 -153 173 -220 247 -139 158
-594 672 -633 716 -14 17 -60 67 -100 113 l-75 83 15 42 c16 49 11 47 254 67
209 16 596 50 910 80 267 25 250 25 265 -10z m465 -80 c39 -11 113 -31 165
-45 52 -14 163 -44 245 -66 198 -53 193 -51 201 -96 4 -21 10 -46 15 -55 7
-13 -18 -42 -124 -140 -896 -841 -1049 -983 -1058 -986 -18 -7 -8 37 62 278
38 135 90 313 114 395 23 83 76 267 116 410 68 243 76 262 108 293 41 37 59
39 156 12z m895 -89 c39 -38 46 -71 25 -114 -33 -70 -127 -81 -175 -20 -75 95
64 220 150 134z m-3007 -107 c15 -3 47 -1 71 6 l43 12 45 -49 c25 -26 94 -104
153 -173 60 -69 131 -150 159 -180 55 -59 95 -105 342 -386 88 -99 213 -241
278 -315 66 -74 126 -141 133 -150 16 -19 7 -49 -15 -49 -9 0 -376 120 -817
266 l-801 267 0 51 c-1 32 -10 68 -23 95 -12 23 -20 49 -18 55 3 7 92 137 197
290 144 207 196 275 209 272 9 -3 29 -8 44 -12z m-566 -619 c32 -21 48 -79 33
-116 -31 -75 -110 -91 -166 -35 -91 91 23 221 133 151z m2027 -659 c106 -44
77 -195 -37 -196 -81 0 -131 104 -79 164 13 15 63 43 80 46 1 0 18 -6 36 -14z"/>
</g>
</svg>
